<?xml version="1.0" encoding="UTF-8"?>
<svg height="600" width="800" xmlns="http://www.w3.org/2000/svg" xmlns:xlink="http://www.w3.org/1999/xlink">
<style>.monochrome-0 {-sfsymbols-motion-group:0}
.multicolor-0:tintColor {-sfsymbols-motion-group:0}
.hierarchical-0:primary {-sfsymbols-motion-group:0}
.monochrome-1 {-sfsymbols-motion-group:1}
.multicolor-1:tintColor {-sfsymbols-motion-group:1}
.hierarchical-1:primary {-sfsymbols-motion-group:1}
.monochrome-2 {-sfsymbols-motion-group:2}
.multicolor-2:tintColor {-sfsymbols-motion-group:2}
.hierarchical-2:primary {-sfsymbols-motion-group:2}
.SFSymbolsPreviewWireframe {fill:none;opacity:1.0;stroke:black;stroke-width:0.5}
</style>
    <g id="Notes" font-family="LucidaGrande, 'Lucida Grande', sans-serif" font-size="13">
        <rect fill="white" height="600.0" width="800.0" x="0.0" y="0.0"/>
        <g font-size="13">
            <text x="18.0" y="176.0">Small</text>
            <text x="18.0" y="376.0">Medium</text>
            <text x="18.0" y="576.0">Large</text>
        </g>
        <g font-size="9">
            <text x="250.0" y="30.0">Ultralight</text>
            <text x="450.0" y="30.0">Regular</text>
            <text x="650.0" y="30.0">Black</text>
            <text id="template-version" fill="#505050" text-anchor="end" x="785.0" y="575.0">Template v.6.0</text>
            <text id="descriptive-name" fill="#505050" text-anchor="end" x="785.0" y="590.0">tab.history</text>
        </g>
    </g>
    <g id="Guides" stroke="rgb(39, 170, 225)" stroke-width="0.5">
        <path id="Capline-S" d="M18,76 l800,0"/>
        <path id="H-reference" d="M85,145.755 L87.685,145.755 L113.369,79.287 L114.052,79.287 L114.052,76 L112.148,76 L85,145.755 Z M95.693,121.536 L130.996,121.536 L130.263,119.313 L96.474,119.313 L95.693,121.536 Z M139.15,145.755 L141.787,145.755 L114.638,76 L113.466,76 L113.466,79.287 L139.15,145.755 Z" stroke="none" transform="translate(0,200)"/>
        <path id="Baseline-S" d="M18,146 l800,0"/>
        <path id="left-margin-Ultralight-S" d="M228.20,56 l0,110"/>
        <path id="right-margin-Ultralight-S" d="M301.80,56 l0,110"/>
        <path id="left-margin-Regular-S" d="M428.20,56 l0,110"/>
        <path id="right-margin-Regular-S" d="M501.80,56 l0,110"/>
        <path id="left-margin-Black-S" d="M628.20,56 l0,110"/>
        <path id="right-margin-Black-S" d="M701.80,56 l0,110"/>
        <path id="left-margin-Ultralight-M" d="M219.00,256 l0,110"/>
        <path id="right-margin-Ultralight-M" d="M311.00,256 l0,110"/>
        <path id="left-margin-Regular-M" d="M419.00,256 l0,110"/>
        <path id="right-margin-Regular-M" d="M511.00,256 l0,110"/>
        <path id="left-margin-Black-M" d="M619.00,256 l0,110"/>
        <path id="right-margin-Black-M" d="M711.00,256 l0,110"/>
        <path id="left-margin-Ultralight-L" d="M205.66,456 l0,110"/>
        <path id="right-margin-Ultralight-L" d="M324.34,456 l0,110"/>
        <path id="left-margin-Regular-L" d="M405.66,456 l0,110"/>
        <path id="right-margin-Regular-L" d="M524.34,456 l0,110"/>
        <path id="left-margin-Black-L" d="M605.66,456 l0,110"/>
        <path id="right-margin-Black-L" d="M724.34,456 l0,110"/>
        <path id="Capline-M" d="M18,276 l800,0"/>
        <path id="Baseline-M" d="M18,346 l800,0"/>
        <path id="Capline-L" d="M18,476 l800,0"/>
        <path id="Baseline-L" d="M18,546 l800,0"/>
    </g>
    <g id="Symbols">
        <g id="Ultralight-S">
            <path class="monochrome-0 multicolor-0:tintColor hierarchical-0:primary SFSymbolsPreviewWireframe" d="M228.20,89.40 C228.20,82.77 233.57,77.40 240.20,77.40 L289.80,77.40 C296.43,77.40 301.80,82.77 301.80,89.40 L301.80,132.60 C301.80,139.23 296.43,144.60 289.80,144.60 L240.20,144.60 C233.57,144.60 228.20,139.23 228.20,132.60 Z M230.60,89.40 L230.60,132.60 C230.60,137.90 234.90,142.20 240.20,142.20 L289.80,142.20 C295.10,142.20 299.40,137.90 299.40,132.60 L299.40,89.40 C299.40,84.10 295.10,79.80 289.80,79.80 L240.20,79.80 C234.90,79.80 230.60,84.10 230.60,89.40 Z M229.40,86.80 C229.40,82.27 233.07,78.60 237.60,78.60 L292.40,78.60 C296.93,78.60 300.60,82.27 300.60,86.80 L300.60,94.60 C300.60,94.82 300.42,95.00 300.20,95.00 L229.80,95.00 C229.58,95.00 229.40,94.82 229.40,94.60 Z"/>
            <path class="monochrome-1 multicolor-1:tintColor hierarchical-1:primary SFSymbolsPreviewWireframe" d="M250.58,111.40 C250.58,113.60 248.80,115.38 246.60,115.38 C244.40,115.38 242.62,113.60 242.62,111.40 C242.62,109.20 244.40,107.42 246.60,107.42 C248.80,107.42 250.58,109.20 250.58,111.40 Z M268.98,111.40 C268.98,113.60 267.20,115.38 265.00,115.38 C262.80,115.38 261.02,113.60 261.02,111.40 C261.02,109.20 262.80,107.42 265.00,107.42 C267.20,107.42 268.98,109.20 268.98,111.40 Z M287.38,111.40 C287.38,113.60 285.60,115.38 283.40,115.38 C281.20,115.38 279.42,113.60 279.42,111.40 C279.42,109.20 281.20,107.42 283.40,107.42 C285.60,107.42 287.38,109.20 287.38,111.40 Z"/>
            <path class="monochrome-2 multicolor-2:tintColor hierarchical-2:primary SFSymbolsPreviewWireframe" d="M250.58,128.20 C250.58,130.40 248.80,132.18 246.60,132.18 C244.40,132.18 242.62,130.40 242.62,128.20 C242.62,126.00 244.40,124.22 246.60,124.22 C248.80,124.22 250.58,126.00 250.58,128.20 Z M268.98,128.20 C268.98,130.40 267.20,132.18 265.00,132.18 C262.80,132.18 261.02,130.40 261.02,128.20 C261.02,126.00 262.80,124.22 265.00,124.22 C267.20,124.22 268.98,126.00 268.98,128.20 Z M287.38,128.20 C287.38,130.40 285.60,132.18 283.40,132.18 C281.20,132.18 279.42,130.40 279.42,128.20 C279.42,126.00 281.20,124.22 283.40,124.22 C285.60,124.22 287.38,126.00 287.38,128.20 Z"/>
        </g>
        <g id="Regular-S">
            <path class="monochrome-0 multicolor-0:tintColor hierarchical-0:primary SFSymbolsPreviewWireframe" d="M428.20,89.40 C428.20,82.77 433.57,77.40 440.20,77.40 L489.80,77.40 C496.43,77.40 501.80,82.77 501.80,89.40 L501.80,132.60 C501.80,139.23 496.43,144.60 489.80,144.60 L440.20,144.60 C433.57,144.60 428.20,139.23 428.20,132.60 Z M435.60,89.40 L435.60,132.60 C435.60,135.14 437.66,137.20 440.20,137.20 L489.80,137.20 C492.34,137.20 494.40,135.14 494.40,132.60 L494.40,89.40 C494.40,86.86 492.34,84.80 489.80,84.80 L440.20,84.80 C437.66,84.80 435.60,86.86 435.60,89.40 Z M431.90,88.05 C431.90,84.21 435.01,81.10 438.85,81.10 L491.15,81.10 C494.99,81.10 498.10,84.21 498.10,88.05 L498.10,94.60 C498.10,94.82 497.92,95.00 497.70,95.00 L432.30,95.00 C432.08,95.00 431.90,94.82 431.90,94.60 Z"/>
            <path class="monochrome-1 multicolor-1:tintColor hierarchical-1:primary SFSymbolsPreviewWireframe" d="M451.18,111.40 C451.18,113.93 449.13,115.98 446.60,115.98 C444.07,115.98 442.02,113.93 442.02,111.40 C442.02,108.87 444.07,106.82 446.60,106.82 C449.13,106.82 451.18,108.87 451.18,111.40 Z M469.58,111.40 C469.58,113.93 467.53,115.98 465.00,115.98 C462.47,115.98 460.42,113.93 460.42,111.40 C460.42,108.87 462.47,106.82 465.00,106.82 C467.53,106.82 469.58,108.87 469.58,111.40 Z M487.98,111.40 C487.98,113.93 485.93,115.98 483.40,115.98 C480.87,115.98 478.82,113.93 478.82,111.40 C478.82,108.87 480.87,106.82 483.40,106.82 C485.93,106.82 487.98,108.87 487.98,111.40 Z"/>
            <path class="monochrome-2 multicolor-2:tintColor hierarchical-2:primary SFSymbolsPreviewWireframe" d="M451.18,128.20 C451.18,130.73 449.13,132.78 446.60,132.78 C444.07,132.78 442.02,130.73 442.02,128.20 C442.02,125.67 444.07,123.62 446.60,123.62 C449.13,123.62 451.18,125.67 451.18,128.20 Z M469.58,128.20 C469.58,130.73 467.53,132.78 465.00,132.78 C462.47,132.78 460.42,130.73 460.42,128.20 C460.42,125.67 462.47,123.62 465.00,123.62 C467.53,123.62 469.58,125.67 469.58,128.20 Z M487.98,128.20 C487.98,130.73 485.93,132.78 483.40,132.78 C480.87,132.78 478.82,130.73 478.82,128.20 C478.82,125.67 480.87,123.62 483.40,123.62 C485.93,123.62 487.98,125.67 487.98,128.20 Z"/>
        </g>
        <g id="Black-S">
            <path class="monochrome-0 multicolor-0:tintColor hierarchical-0:primary SFSymbolsPreviewWireframe" d="M628.20,89.40 C628.20,82.77 633.57,77.40 640.20,77.40 L689.80,77.40 C696.43,77.40 701.80,82.77 701.80,89.40 L701.80,132.60 C701.80,139.23 696.43,144.60 689.80,144.60 L640.20,144.60 C633.57,144.60 628.20,139.23 628.20,132.60 Z M643.20,92.80 L643.20,129.20 C643.20,129.42 643.38,129.60 643.60,129.60 L686.40,129.60 C686.62,129.60 686.80,129.42 686.80,129.20 L686.80,92.80 C686.80,92.58 686.62,92.40 686.40,92.40 L643.60,92.40 C643.38,92.40 643.20,92.58 643.20,92.80 Z M635.70,89.40 C635.70,86.91 637.71,84.90 640.20,84.90 L689.80,84.90 C692.29,84.90 694.30,86.91 694.30,89.40 L694.30,94.60 C694.30,94.82 694.12,95.00 693.90,95.00 L636.10,95.00 C635.88,95.00 635.70,94.82 635.70,94.60 Z"/>
            <path class="monochrome-1 multicolor-1:tintColor hierarchical-1:primary SFSymbolsPreviewWireframe" d="M652.09,111.40 C652.09,114.43 649.63,116.89 646.60,116.89 C643.57,116.89 641.11,114.43 641.11,111.40 C641.11,108.37 643.57,105.91 646.60,105.91 C649.63,105.91 652.09,108.37 652.09,111.40 Z M670.49,111.40 C670.49,114.43 668.03,116.89 665.00,116.89 C661.97,116.89 659.51,114.43 659.51,111.40 C659.51,108.37 661.97,105.91 665.00,105.91 C668.03,105.91 670.49,108.37 670.49,111.40 Z M688.89,111.40 C688.89,114.43 686.43,116.89 683.40,116.89 C680.37,116.89 677.91,114.43 677.91,111.40 C677.91,108.37 680.37,105.91 683.40,105.91 C686.43,105.91 688.89,108.37 688.89,111.40 Z"/>
            <path class="monochrome-2 multicolor-2:tintColor hierarchical-2:primary SFSymbolsPreviewWireframe" d="M652.09,128.20 C652.09,131.23 649.63,133.69 646.60,133.69 C643.57,133.69 641.11,131.23 641.11,128.20 C641.11,125.17 643.57,122.71 646.60,122.71 C649.63,122.71 652.09,125.17 652.09,128.20 Z M670.49,128.20 C670.49,131.23 668.03,133.69 665.00,133.69 C661.97,133.69 659.51,131.23 659.51,128.20 C659.51,125.17 661.97,122.71 665.00,122.71 C668.03,122.71 670.49,125.17 670.49,128.20 Z M688.89,128.20 C688.89,131.23 686.43,133.69 683.40,133.69 C680.37,133.69 677.91,131.23 677.91,128.20 C677.91,125.17 680.37,122.71 683.40,122.71 C686.43,122.71 688.89,125.17 688.89,128.20 Z"/>
        </g>
        <g id="Ultralight-M">
            <path class="monochrome-0 multicolor-0:tintColor hierarchical-0:primary SFSymbolsPreviewWireframe" d="M219.00,284.00 C219.00,275.72 225.72,269.00 234.00,269.00 L296.00,269.00 C304.28,269.00 311.00,275.72 311.00,284.00 L311.00,338.00 C311.00,346.28 304.28,353.00 296.00,353.00 L234.00,353.00 C225.72,353.00 219.00,346.28 219.00,338.00 Z M221.40,284.00 L221.40,338.00 C221.40,344.96 227.04,350.60 234.00,350.60 L296.00,350.60 C302.96,350.60 308.60,344.96 308.60,338.00 L308.60,284.00 C308.60,277.04 302.96,271.40 296.00,271.40 L234.00,271.40 C227.04,271.40 221.40,277.04 221.40,284.00 Z M220.20,280.60 C220.20,274.86 224.86,270.20 230.60,270.20 L299.40,270.20 C305.14,270.20 309.80,274.86 309.80,280.60 L309.80,290.50 C309.80,290.78 309.58,291.00 309.30,291.00 L220.70,291.00 C220.42,291.00 220.20,290.78 220.20,290.50 Z"/>
            <path class="monochrome-1 multicolor-1:tintColor hierarchical-1:primary SFSymbolsPreviewWireframe" d="M246.90,311.50 C246.90,314.21 244.71,316.40 242.00,316.40 C239.29,316.40 237.10,314.21 237.10,311.50 C237.10,308.79 239.29,306.60 242.00,306.60 C244.71,306.60 246.90,308.79 246.90,311.50 Z M269.90,311.50 C269.90,314.21 267.71,316.40 265.00,316.40 C262.29,316.40 260.10,314.21 260.10,311.50 C260.10,308.79 262.29,306.60 265.00,306.60 C267.71,306.60 269.90,308.79 269.90,311.50 Z M292.90,311.50 C292.90,314.21 290.71,316.40 288.00,316.40 C285.29,316.40 283.10,314.21 283.10,311.50 C283.10,308.79 285.29,306.60 288.00,306.60 C290.71,306.60 292.90,308.79 292.90,311.50 Z"/>
            <path class="monochrome-2 multicolor-2:tintColor hierarchical-2:primary SFSymbolsPreviewWireframe" d="M246.90,332.50 C246.90,335.21 244.71,337.40 242.00,337.40 C239.29,337.40 237.10,335.21 237.10,332.50 C237.10,329.79 239.29,327.60 242.00,327.60 C244.71,327.60 246.90,329.79 246.90,332.50 Z M269.90,332.50 C269.90,335.21 267.71,337.40 265.00,337.40 C262.29,337.40 260.10,335.21 260.10,332.50 C260.10,329.79 262.29,327.60 265.00,327.60 C267.71,327.60 269.90,329.79 269.90,332.50 Z M292.90,332.50 C292.90,335.21 290.71,337.40 288.00,337.40 C285.29,337.40 283.10,335.21 283.10,332.50 C283.10,329.79 285.29,327.60 288.00,327.60 C290.71,327.60 292.90,329.79 292.90,332.50 Z"/>
        </g>
        <g id="Regular-M">
            <path class="monochrome-0 multicolor-0:tintColor hierarchical-0:primary SFSymbolsPreviewWireframe" d="M419.00,284.00 C419.00,275.72 425.72,269.00 434.00,269.00 L496.00,269.00 C504.28,269.00 511.00,275.72 511.00,284.00 L511.00,338.00 C511.00,346.28 504.28,353.00 496.00,353.00 L434.00,353.00 C425.72,353.00 419.00,346.28 419.00,338.00 Z M426.40,284.00 L426.40,338.00 C426.40,342.20 429.80,345.60 434.00,345.60 L496.00,345.60 C500.20,345.60 503.60,342.20 503.60,338.00 L503.60,284.00 C503.60,279.80 500.20,276.40 496.00,276.40 L434.00,276.40 C429.80,276.40 426.40,279.80 426.40,284.00 Z M422.70,281.85 C422.70,276.80 426.80,272.70 431.85,272.70 L498.15,272.70 C503.20,272.70 507.30,276.80 507.30,281.85 L507.30,290.50 C507.30,290.78 507.08,291.00 506.80,291.00 L423.20,291.00 C422.92,291.00 422.70,290.78 422.70,290.50 Z"/>
            <path class="monochrome-1 multicolor-1:tintColor hierarchical-1:primary SFSymbolsPreviewWireframe" d="M447.50,311.50 C447.50,314.54 445.04,317.00 442.00,317.00 C438.96,317.00 436.50,314.54 436.50,311.50 C436.50,308.46 438.96,306.00 442.00,306.00 C445.04,306.00 447.50,308.46 447.50,311.50 Z M470.50,311.50 C470.50,314.54 468.04,317.00 465.00,317.00 C461.96,317.00 459.50,314.54 459.50,311.50 C459.50,308.46 461.96,306.00 465.00,306.00 C468.04,306.00 470.50,308.46 470.50,311.50 Z M493.50,311.50 C493.50,314.54 491.04,317.00 488.00,317.00 C484.96,317.00 482.50,314.54 482.50,311.50 C482.50,308.46 484.96,306.00 488.00,306.00 C491.04,306.00 493.50,308.46 493.50,311.50 Z"/>
            <path class="monochrome-2 multicolor-2:tintColor hierarchical-2:primary SFSymbolsPreviewWireframe" d="M447.50,332.50 C447.50,335.54 445.04,338.00 442.00,338.00 C438.96,338.00 436.50,335.54 436.50,332.50 C436.50,329.46 438.96,327.00 442.00,327.00 C445.04,327.00 447.50,329.46 447.50,332.50 Z M470.50,332.50 C470.50,335.54 468.04,338.00 465.00,338.00 C461.96,338.00 459.50,335.54 459.50,332.50 C459.50,329.46 461.96,327.00 465.00,327.00 C468.04,327.00 470.50,329.46 470.50,332.50 Z M493.50,332.50 C493.50,335.54 491.04,338.00 488.00,338.00 C484.96,338.00 482.50,335.54 482.50,332.50 C482.50,329.46 484.96,327.00 488.00,327.00 C491.04,327.00 493.50,329.46 493.50,332.50 Z"/>
        </g>
        <g id="Black-M">
            <path class="monochrome-0 multicolor-0:tintColor hierarchical-0:primary SFSymbolsPreviewWireframe" d="M619.00,284.00 C619.00,275.72 625.72,269.00 634.00,269.00 L696.00,269.00 C704.28,269.00 711.00,275.72 711.00,284.00 L711.00,338.00 C711.00,346.28 704.28,353.00 696.00,353.00 L634.00,353.00 C625.72,353.00 619.00,346.28 619.00,338.00 Z M634.00,284.50 L634.00,337.50 C634.00,337.78 634.22,338.00 634.50,338.00 L695.50,338.00 C695.78,338.00 696.00,337.78 696.00,337.50 L696.00,284.50 C696.00,284.22 695.78,284.00 695.50,284.00 L634.50,284.00 C634.22,284.00 634.00,284.22 634.00,284.50 Z M626.50,283.75 C626.50,279.75 629.75,276.50 633.75,276.50 L696.25,276.50 C700.25,276.50 703.50,279.75 703.50,283.75 L703.50,290.50 C703.50,290.78 703.28,291.00 703.00,291.00 L627.00,291.00 C626.72,291.00 626.50,290.78 626.50,290.50 Z"/>
            <path class="monochrome-1 multicolor-1:tintColor hierarchical-1:primary SFSymbolsPreviewWireframe" d="M648.41,311.50 C648.41,315.04 645.54,317.91 642.00,317.91 C638.46,317.91 635.59,315.04 635.59,311.50 C635.59,307.96 638.46,305.09 642.00,305.09 C645.54,305.09 648.41,307.96 648.41,311.50 Z M671.41,311.50 C671.41,315.04 668.54,317.91 665.00,317.91 C661.46,317.91 658.59,315.04 658.59,311.50 C658.59,307.96 661.46,305.09 665.00,305.09 C668.54,305.09 671.41,307.96 671.41,311.50 Z M694.41,311.50 C694.41,315.04 691.54,317.91 688.00,317.91 C684.46,317.91 681.59,315.04 681.59,311.50 C681.59,307.96 684.46,305.09 688.00,305.09 C691.54,305.09 694.41,307.96 694.41,311.50 Z"/>
            <path class="monochrome-2 multicolor-2:tintColor hierarchical-2:primary SFSymbolsPreviewWireframe" d="M648.41,332.50 C648.41,336.04 645.54,338.91 642.00,338.91 C638.46,338.91 635.59,336.04 635.59,332.50 C635.59,328.96 638.46,326.09 642.00,326.09 C645.54,326.09 648.41,328.96 648.41,332.50 Z M671.41,332.50 C671.41,336.04 668.54,338.91 665.00,338.91 C661.46,338.91 658.59,336.04 658.59,332.50 C658.59,328.96 661.46,326.09 665.00,326.09 C668.54,326.09 671.41,328.96 671.41,332.50 Z M694.41,332.50 C694.41,336.04 691.54,338.91 688.00,338.91 C684.46,338.91 681.59,336.04 681.59,332.50 C681.59,328.96 684.46,326.09 688.00,326.09 C691.54,326.09 694.41,328.96 694.41,332.50 Z"/>
        </g>
        <g id="Ultralight-L">
            <path class="monochrome-0 multicolor-0:tintColor hierarchical-0:primary SFSymbolsPreviewWireframe" d="M205.66,476.17 C205.66,465.48 214.32,456.82 225.01,456.82 L304.99,456.82 C315.68,456.82 324.34,465.48 324.34,476.17 L324.34,545.83 C324.34,556.52 315.68,565.18 304.99,565.18 L225.01,565.18 C214.32,565.18 205.66,556.52 205.66,545.83 Z M208.06,476.17 L208.06,545.83 C208.06,555.19 215.65,562.78 225.01,562.78 L304.99,562.78 C314.35,562.78 321.94,555.19 321.94,545.83 L321.94,476.17 C321.94,466.81 314.35,459.22 304.99,459.22 L225.01,459.22 C215.65,459.22 208.06,466.81 208.06,476.17 Z M206.86,471.61 C206.86,464.10 212.94,458.02 220.45,458.02 L309.55,458.02 C317.06,458.02 323.14,464.10 323.14,471.61 L323.14,484.56 C323.14,484.91 322.85,485.20 322.50,485.20 L207.50,485.20 C207.15,485.20 206.86,484.91 206.86,484.56 Z"/>
            <path class="monochrome-1 multicolor-1:tintColor hierarchical-1:primary SFSymbolsPreviewWireframe" d="M241.57,511.64 C241.57,515.09 238.77,517.88 235.33,517.88 C231.89,517.88 229.09,515.09 229.09,511.64 C229.09,508.20 231.89,505.41 235.33,505.41 C238.77,505.41 241.57,508.20 241.57,511.64 Z M271.24,511.64 C271.24,515.09 268.44,517.88 265.00,517.88 C261.56,517.88 258.76,515.09 258.76,511.64 C258.76,508.20 261.56,505.41 265.00,505.41 C268.44,505.41 271.24,508.20 271.24,511.64 Z M300.91,511.64 C300.91,515.09 298.11,517.88 294.67,517.88 C291.23,517.88 288.43,515.09 288.43,511.64 C288.43,508.20 291.23,505.41 294.67,505.41 C298.11,505.41 300.91,508.20 300.91,511.64 Z"/>
            <path class="monochrome-2 multicolor-2:tintColor hierarchical-2:primary SFSymbolsPreviewWireframe" d="M241.57,538.74 C241.57,542.18 238.77,544.97 235.33,544.97 C231.89,544.97 229.09,542.18 229.09,538.74 C229.09,535.29 231.89,532.50 235.33,532.50 C238.77,532.50 241.57,535.29 241.57,538.74 Z M271.24,538.74 C271.24,542.18 268.44,544.97 265.00,544.97 C261.56,544.97 258.76,542.18 258.76,538.74 C258.76,535.29 261.56,532.50 265.00,532.50 C268.44,532.50 271.24,535.29 271.24,538.74 Z M300.91,538.74 C300.91,542.18 298.11,544.97 294.67,544.97 C291.23,544.97 288.43,542.18 288.43,538.74 C288.43,535.29 291.23,532.50 294.67,532.50 C298.11,532.50 300.91,535.29 300.91,538.74 Z"/>
        </g>
        <g id="Regular-L">
            <path class="monochrome-0 multicolor-0:tintColor hierarchical-0:primary SFSymbolsPreviewWireframe" d="M405.66,476.17 C405.66,465.48 414.32,456.82 425.01,456.82 L504.99,456.82 C515.68,456.82 524.34,465.48 524.34,476.17 L524.34,545.83 C524.34,556.52 515.68,565.18 504.99,565.18 L425.01,565.18 C414.32,565.18 405.66,556.52 405.66,545.83 Z M413.06,476.17 L413.06,545.83 C413.06,552.43 418.41,557.78 425.01,557.78 L504.99,557.78 C511.59,557.78 516.94,552.43 516.94,545.83 L516.94,476.17 C516.94,469.57 511.59,464.22 504.99,464.22 L425.01,464.22 C418.41,464.22 413.06,469.57 413.06,476.17 Z M409.36,472.86 C409.36,466.04 414.88,460.52 421.70,460.52 L508.30,460.52 C515.12,460.52 520.64,466.04 520.64,472.86 L520.64,484.56 C520.64,484.91 520.35,485.20 520.00,485.20 L410.00,485.20 C409.65,485.20 409.36,484.91 409.36,484.56 Z"/>
            <path class="monochrome-1 multicolor-1:tintColor hierarchical-1:primary SFSymbolsPreviewWireframe" d="M442.17,511.64 C442.17,515.42 439.11,518.48 435.33,518.48 C431.55,518.48 428.49,515.42 428.49,511.64 C428.49,507.87 431.55,504.81 435.33,504.81 C439.11,504.81 442.17,507.87 442.17,511.64 Z M471.84,511.64 C471.84,515.42 468.78,518.48 465.00,518.48 C461.22,518.48 458.16,515.42 458.16,511.64 C458.16,507.87 461.22,504.81 465.00,504.81 C468.78,504.81 471.84,507.87 471.84,511.64 Z M501.51,511.64 C501.51,515.42 498.45,518.48 494.67,518.48 C490.89,518.48 487.83,515.42 487.83,511.64 C487.83,507.87 490.89,504.81 494.67,504.81 C498.45,504.81 501.51,507.87 501.51,511.64 Z"/>
            <path class="monochrome-2 multicolor-2:tintColor hierarchical-2:primary SFSymbolsPreviewWireframe" d="M442.17,538.74 C442.17,542.51 439.11,545.57 435.33,545.57 C431.55,545.57 428.49,542.51 428.49,538.74 C428.49,534.96 431.55,531.90 435.33,531.90 C439.11,531.90 442.17,534.96 442.17,538.74 Z M471.84,538.74 C471.84,542.51 468.78,545.57 465.00,545.57 C461.22,545.57 458.16,542.51 458.16,538.74 C458.16,534.96 461.22,531.90 465.00,531.90 C468.78,531.90 471.84,534.96 471.84,538.74 Z M501.51,538.74 C501.51,542.51 498.45,545.57 494.67,545.57 C490.89,545.57 487.83,542.51 487.83,538.74 C487.83,534.96 490.89,531.90 494.67,531.90 C498.45,531.90 501.51,534.96 501.51,538.74 Z"/>
        </g>
        <g id="Black-L">
            <path class="monochrome-0 multicolor-0:tintColor hierarchical-0:primary SFSymbolsPreviewWireframe" d="M605.66,476.17 C605.66,465.48 614.32,456.82 625.01,456.82 L704.99,456.82 C715.68,456.82 724.34,465.48 724.34,476.17 L724.34,545.83 C724.34,556.52 715.68,565.18 704.99,565.18 L625.01,565.18 C614.32,565.18 605.66,556.52 605.66,545.83 Z M620.66,476.17 L620.66,545.83 C620.66,548.23 622.61,550.18 625.01,550.18 L704.99,550.18 C707.39,550.18 709.34,548.23 709.34,545.83 L709.34,476.17 C709.34,473.77 707.39,471.82 704.99,471.82 L625.01,471.82 C622.61,471.82 620.66,473.77 620.66,476.17 Z M613.16,474.76 C613.16,468.99 617.83,464.32 623.60,464.32 L706.40,464.32 C712.17,464.32 716.84,468.99 716.84,474.76 L716.84,484.56 C716.84,484.91 716.55,485.20 716.20,485.20 L613.80,485.20 C613.45,485.20 613.16,484.91 613.16,484.56 Z"/>
            <path class="monochrome-1 multicolor-1:tintColor hierarchical-1:primary SFSymbolsPreviewWireframe" d="M643.08,511.64 C643.08,515.92 639.61,519.39 635.33,519.39 C631.05,519.39 627.58,515.92 627.58,511.64 C627.58,507.37 631.05,503.90 635.33,503.90 C639.61,503.90 643.08,507.37 643.08,511.64 Z M672.75,511.64 C672.75,515.92 669.28,519.39 665.00,519.39 C660.72,519.39 657.25,515.92 657.25,511.64 C657.25,507.37 660.72,503.90 665.00,503.90 C669.28,503.90 672.75,507.37 672.75,511.64 Z M702.42,511.64 C702.42,515.92 698.95,519.39 694.67,519.39 C690.39,519.39 686.92,515.92 686.92,511.64 C686.92,507.37 690.39,503.90 694.67,503.90 C698.95,503.90 702.42,507.37 702.42,511.64 Z"/>
            <path class="monochrome-2 multicolor-2:tintColor hierarchical-2:primary SFSymbolsPreviewWireframe" d="M643.08,538.74 C643.08,543.01 639.61,546.48 635.33,546.48 C631.05,546.48 627.58,543.01 627.58,538.74 C627.58,534.46 631.05,530.99 635.33,530.99 C639.61,530.99 643.08,534.46 643.08,538.74 Z M672.75,538.74 C672.75,543.01 669.28,546.48 665.00,546.48 C660.72,546.48 657.25,543.01 657.25,538.74 C657.25,534.46 660.72,530.99 665.00,530.99 C669.28,530.99 672.75,534.46 672.75,538.74 Z M702.42,538.74 C702.42,543.01 698.95,546.48 694.67,546.48 C690.39,546.48 686.92,543.01 686.92,538.74 C686.92,534.46 690.39,530.99 694.67,530.99 C698.95,530.99 702.42,534.46 702.42,538.74 Z"/>
        </g>
    </g>
</svg>
